Coordinates
version=1
nRows=5
nColumns=40
inDegrees=yes

Units are S.I. units (second, meters, Newtons, ...)
Angles are in degrees.

endheader
time	pelvis_tilt	pelvis_list	pelvis_rotation	pelvis_tx	pelvis_ty	pelvis_tz	hip_flexion_r	hip_adduction_r	hip_rotation_r	knee_angle_r	knee_angle_r_beta	ankle_angle_r	subtalar_angle_r	mtp_angle_r	hip_flexion_l	hip_adduction_l	hip_rotation_l	knee_angle_l	knee_angle_l_beta	ankle_angle_l	subtalar_angle_l	mtp_angle_l	lumbar_extension	lumbar_bending	lumbar_rotation	arm_flex_r	arm_add_r	arm_rot_r	elbow_flex_r	pro_sup_r	wrist_flex_r	wrist_dev_r	arm_flex_l	arm_add_l	arm_rot_l	elbow_flex_l	pro_sup_l	wrist_flex_l	wrist_dev_l
     51.89000000	     -6.35661463	     -5.75952441	     -1.03533203	      1.07888633	      0.93067583	      0.43822994	     32.31157094	     -5.31663891	     -7.53083303	     70.51254846	     70.51254846	      4.83682897	    -18.26526568	      5.80342562	     19.57644317	     -6.35452219	     -8.58289394	     22.72907753	     22.72907753	     12.19509775	     -8.04373346	     -1.50895258	    -11.91489398	      4.93102866	      0.98736142	      7.74608578	    -14.35033071	     -2.43807886	     49.37054775	     45.68105608	      0.00000000	      0.00000000	     13.57353636	    -15.07808429	      2.33150319	     43.33673010	     46.08251886	      0.00000000	      0.00000000
     51.90228571	     -6.36195896	     -5.59728304	     -1.09289186	      1.07788124	      0.93105127	      0.43736911	     33.63952187	     -5.55101819	     -7.44068481	     70.13989217	     70.13989217	      4.51149960	    -18.00454128	      5.33325176	     18.83359397	     -6.10411488	     -8.75654404	     22.27156610	     22.27156610	     12.43593508	     -7.87108132	     -1.57892091	    -11.99774624	      4.86193836	      1.04654234	      6.24509560	    -14.38303567	     -2.54354870	     45.15297744	     45.82312698	      0.00000000	      0.00000000	     15.10148293	    -15.55595525	      2.33991893	     44.86737908	     46.14523925	      0.00000000	      0.00000000
     51.91457143	     -6.33064859	     -5.43508111	     -1.16487344	      1.07694200	      0.93135888	      0.43657164	     34.86505249	     -5.75345631	     -7.33036651	     69.66410698	     69.66410698	      4.25853072	    -17.69397211	      5.15135026	     18.07473470	     -5.89554124	     -9.07342852	     21.87443826	     21.87443826	     12.75854227	     -7.45737520	     -1.70477650	    -12.19527009	      4.79238000	      1.48516792	      3.94787663	    -14.73895661	     -2.44585619	     42.75728411	     45.89165918	      0.00000000	      0.00000000	     16.79765333	    -15.78024689	      2.05503038	     46.59066528	     46.21588200	      0.00000000	      0.00000000
     51.92685714	     -6.31579296	     -5.32382108	     -1.19676420	      1.07606520	      0.93158627	      0.43591328	     35.95335996	     -5.91781183	     -7.33672881	     68.93358708	     68.93358708	      3.72400915	    -17.50730741	      4.20634711	     17.38254624	     -5.78815527	     -9.50343737	     21.55548144	     21.55548144	     13.10173287	     -6.75937492	     -2.02629955	    -12.30055292	      4.76060687	      1.06309169	      3.45565701	    -14.32403033	     -2.98036534	     37.06903688	     46.12207168	      0.00000000	      0.00000000	     17.55259934	    -16.69905923	      1.98937901	     49.33097727	     46.29849580	      0.00000000	      0.00000000
     51.93914286	     -6.30428062	     -5.14173343	     -1.23482696	      1.07530024	      0.93180428	      0.43528288	     36.95373129	     -6.12023680	     -7.30735285	     68.03280276	     68.03280276	      3.51864343	    -17.16559937	      4.19217043	     16.59950174	     -5.52766916	     -9.73441709	     21.04049186	     21.04049186	     13.37782770	     -6.41953332	     -2.06634429	    -12.44791196	      4.66945825	      1.39834952	      1.26881259	    -14.55257002	     -2.92529475	     35.18871938	     46.17469320	      0.00000000	      0.00000000	     19.12222706	    -16.88265675	      1.58827925	     50.90441407	     46.37407390	      0.00000000	      0.00000000
